<?xml version="1.0" encoding="UTF-8"?>
<!DOCTYPE svg PUBLIC "-//W3C//DTD SVG 1.1//EN" "http://www.w3.org/Graphics/SVG/1.1/DTD/svg11.dtd">
<!-- Creator: CorelDRAW 2020 (64-Bit Evaluation Version) -->
<svg xmlns="http://www.w3.org/2000/svg" xml:space="preserve" width="45.8636mm" height="7.168mm" version="1.1" style="shape-rendering:geometricPrecision; text-rendering:geometricPrecision; image-rendering:optimizeQuality; fill-rule:evenodd; clip-rule:evenodd"
viewBox="0 0 460.74 72.01"
 xmlns:xlink="http://www.w3.org/1999/xlink"
 xmlns:xodm="http://www.corel.com/coreldraw/odm/2003">
 <defs>
  <style type="text/css">
   <![CDATA[
    .fil0 {fill:#01295C;fill-rule:nonzero}
    .fil1 {fill:url(#id0);fill-rule:nonzero}
    .fil2 {fill:url(#id1);fill-rule:nonzero}
   ]]>
  </style>
  <linearGradient id="id0" gradientUnits="userSpaceOnUse" x1="189.52" y1="63.35" x2="264.25" y2="63.35">
   <stop offset="0" style="stop-opacity:1; stop-color:#62A9FB"/>
   <stop offset="1" style="stop-opacity:1; stop-color:#3369FA"/>
  </linearGradient>
  <linearGradient id="id1" gradientUnits="userSpaceOnUse" x1="264.25" y1="9.75" x2="190.61" y2="9.75">
   <stop offset="0" style="stop-opacity:1; stop-color:#F4AF64"/>
   <stop offset="1" style="stop-opacity:1; stop-color:#FF533F"/>
  </linearGradient>
 </defs>
 <g id="Layer_x0020_1">
  <metadata id="CorelCorpID_0Corel-Layer"/>
  <path class="fil0" d="M39.69 24.12c0.18,-2.04 -0.31,-3.64 -1.48,-4.8 -1.18,-1.18 -3.16,-1.77 -5.94,-1.77 -1.78,0 -3.26,0.21 -4.46,0.62 -1.18,0.41 -2.1,0.98 -2.76,1.7 -0.64,0.72 -1.04,1.56 -1.21,2.51 -0.18,0.74 -0.17,1.42 0.03,2.04 0.23,0.6 0.65,1.14 1.27,1.64 0.64,0.49 1.48,0.94 2.51,1.33 1.05,0.39 2.3,0.74 3.75,1.05l4.95 1.12c3.38,0.74 6.22,1.72 8.51,2.94 2.31,1.2 4.13,2.62 5.45,4.27 1.32,1.65 2.19,3.5 2.6,5.54 0.43,2.04 0.44,4.27 0.03,6.69 -0.7,4.17 -2.32,7.69 -4.86,10.59 -2.54,2.89 -5.85,5.08 -9.94,6.59 -4.08,1.5 -8.81,2.26 -14.18,2.26 -5.49,0 -10.15,-0.82 -13.99,-2.45 -3.82,-1.65 -6.58,-4.17 -8.3,-7.55 -1.69,-3.41 -2.1,-7.75 -1.24,-13.03l16.34 0c-0.25,1.94 -0.04,3.57 0.62,4.89 0.66,1.32 1.72,2.32 3.19,3 1.47,0.68 3.29,1.02 5.48,1.02 1.86,0 3.44,-0.23 4.76,-0.68 1.32,-0.46 2.36,-1.08 3.12,-1.89 0.76,-0.81 1.23,-1.72 1.39,-2.76 0.17,-0.95 0,-1.8 -0.49,-2.54 -0.49,-0.74 -1.39,-1.41 -2.69,-2.01 -1.3,-0.6 -3.09,-1.14 -5.36,-1.64l-6.06 -1.36c-5.38,-1.24 -9.45,-3.28 -12.19,-6.13 -2.75,-2.85 -3.71,-6.75 -2.91,-11.7 0.66,-4.04 2.32,-7.57 4.98,-10.59 2.68,-3.03 6.09,-5.39 10.21,-7.06 4.15,-1.69 8.74,-2.54 13.77,-2.54 5.12,0 9.4,0.86 12.84,2.57 3.47,1.71 5.95,4.12 7.46,7.21 1.53,3.1 1.94,6.73 1.24,10.89l-16.47 0 0.01 0.02z"/>
  <polygon class="fil0" points="56.38,67.69 66.9,4.31 112.58,4.31 110.23,18.18 81.76,18.18 80.03,29.07 106.14,29.07 103.79,42.94 77.67,42.94 75.94,53.83 104.29,53.83 101.94,67.69 "/>
  <path class="fil0" d="M176.27 28.08l-17.21 0c0.12,-1.47 0.04,-2.78 -0.25,-3.96 -0.29,-1.18 -0.79,-2.19 -1.48,-3.03 -0.7,-0.87 -1.62,-1.53 -2.76,-1.98 -1.14,-0.46 -2.49,-0.68 -4.06,-0.68 -3.01,0 -5.71,0.75 -8.08,2.26 -2.37,1.48 -4.34,3.62 -5.91,6.41 -1.57,2.77 -2.68,6.06 -3.34,9.9 -0.58,3.71 -0.6,6.8 -0.07,9.25 0.56,2.45 1.64,4.29 3.25,5.51 1.63,1.22 3.74,1.83 6.35,1.83 1.73,0 3.33,-0.21 4.76,-0.62 1.46,-0.41 2.77,-1 3.9,-1.77 1.15,-0.79 2.13,-1.71 2.94,-2.78 0.82,-1.09 1.45,-2.3 1.88,-3.62l17.33 0c-0.66,2.68 -1.84,5.43 -3.53,8.23 -1.69,2.78 -3.88,5.36 -6.56,7.71 -2.68,2.33 -5.84,4.22 -9.47,5.66 -3.63,1.45 -7.72,2.17 -12.25,2.17 -5.94,0 -11.07,-1.3 -15.38,-3.9 -4.29,-2.6 -7.41,-6.4 -9.35,-11.39 -1.92,-4.99 -2.3,-11.08 -1.14,-18.26 1.15,-6.93 3.43,-12.74 6.84,-17.43 3.41,-4.68 7.54,-8.21 12.41,-10.59 4.87,-2.37 10.05,-3.56 15.54,-3.56 4.15,0 7.86,0.55 11.14,1.64 3.3,1.09 6.08,2.69 8.32,4.8 2.27,2.08 3.94,4.65 5.01,7.71 1.07,3.05 1.45,6.55 1.14,10.49l0.01 0.01z"/>
  <polygon class="fil1" points="224.43,27 215.34,54 267.58,54 249.41,72.01 185.8,72.01 203.98,27 "/>
  <polygon class="fil2" points="228.98,45 238.06,18 185.8,18 203.98,0 267.58,0 249.41,45 "/>
  <path class="fil0" d="M277.01 67.69l10.52 -63.38 27.36 0c4.71,0 8.66,0.93 11.89,2.78 3.22,1.86 5.53,4.47 6.93,7.83 1.4,3.36 1.73,7.29 0.99,11.79 -0.74,4.58 -2.39,8.53 -4.95,11.85 -2.54,3.3 -5.78,5.85 -9.72,7.65 -3.92,1.78 -8.32,2.66 -13.19,2.66l-16.34 0 2.23 -13.37 12.88 0c2.06,0 3.88,-0.35 5.45,-1.05 1.57,-0.72 2.84,-1.73 3.81,-3.03 0.97,-1.32 1.6,-2.89 1.89,-4.71 0.29,-1.81 0.16,-3.36 -0.4,-4.64 -0.54,-1.3 -1.46,-2.29 -2.78,-2.97 -1.3,-0.7 -2.96,-1.05 -4.98,-1.05l-6.06 0 -8.3 49.64 -17.21 0 0 -0.01z"/>
  <path class="fil0" d="M342.76 67.69l-18.57 0 31.44 -63.38 23.52 0 10.4 63.38 -18.57 0 -6.19 -45.93 -0.49 0 -21.54 45.93 -0.01 0zm0.74 -25.01l34.91 0 -2.23 12.88 -34.91 0 2.23 -12.88 0.01 0z"/>
  <polygon class="fil0" points="397.11,4.31 416.3,4.31 424.34,30.06 424.97,30.06 441.55,4.31 460.74,4.31 430.29,47.77 426.94,67.69 409.86,67.69 413.2,47.77 "/>
 </g>
</svg>
